<?xml version="1.0" encoding="UTF-8"?>
<svg xmlns="http://www.w3.org/2000/svg" xmlns:xlink="http://www.w3.org/1999/xlink" viewBox="0 0 480 480" width="480px" height="480px">
<g id="surface91322683">
<path style=" stroke:none;fill-rule:nonzero;fill:rgb(20.392157%,59.607846%,85.882354%);fill-opacity:1;" d="M 440 240 C 440 350.449219 350.449219 440 240 440 C 129.550781 440 40 350.449219 40 240 C 40 129.550781 129.550781 40 240 40 C 350.449219 40 440 129.550781 440 240 Z M 440 240 "/>
<path style=" stroke:none;fill-rule:nonzero;fill:rgb(100%,100%,100%);fill-opacity:1;" d="M 220 220 L 260 220 L 260 330 L 220 330 Z M 265 165 C 265 178.789062 253.789062 190 240 190 C 226.210938 190 215 178.789062 215 165 C 215 151.210938 226.210938 140 240 140 C 253.789062 140 265 151.210938 265 165 Z M 265 165 "/>
</g>
</svg>
